G04*
G04 #@! TF.GenerationSoftware,Altium Limited,Altium Designer,22.0.2 (36)*
G04*
G04 Layer_Physical_Order=1*
G04 Layer_Color=255*
%FSLAX25Y25*%
%MOIN*%
G70*
G04*
G04 #@! TF.SameCoordinates,8AFDD3F0-81C4-4118-9C40-4E65E406D428*
G04*
G04*
G04 #@! TF.FilePolarity,Positive*
G04*
G01*
G75*
%ADD11C,0.01000*%
%ADD35C,0.04331*%
%ADD36R,0.15748X0.07874*%
%ADD37O,0.15748X0.07874*%
%ADD38R,0.03150X0.02756*%
%ADD39R,0.05512X0.13386*%
%ADD40R,0.06299X0.05906*%
%ADD41R,0.04724X0.04724*%
%ADD42R,0.02362X0.07874*%
%ADD43O,0.02362X0.07874*%
%ADD44C,0.03937*%
%ADD45R,0.00394X0.00394*%
%ADD46R,0.02165X0.01181*%
%ADD47R,0.00394X0.00394*%
%ADD48R,0.01181X0.02165*%
%ADD49R,0.06102X0.05118*%
%ADD50R,0.02362X0.03543*%
%ADD51R,0.04724X0.06496*%
%ADD52R,0.04528X0.05315*%
%ADD53R,0.05315X0.04528*%
%ADD54R,0.02756X0.03150*%
%ADD55C,0.04331*%
%ADD56C,0.03937*%
%ADD57C,0.01575*%
%ADD58C,0.06000*%
%ADD59R,0.06000X0.06000*%
%ADD60C,0.09843*%
%ADD61C,0.03150*%
%ADD62C,0.01968*%
G36*
X454134Y364173D02*
X453543Y363583D01*
X452165D01*
Y364764D01*
X454134D01*
Y364173D01*
D02*
G37*
G36*
X455315Y361614D02*
X454134D01*
Y362992D01*
X454724Y363583D01*
X455315D01*
Y361614D01*
D02*
G37*
G36*
Y376575D02*
X454724D01*
X454134Y377165D01*
Y378543D01*
X455315D01*
Y376575D01*
D02*
G37*
G36*
X454134Y375984D02*
Y375394D01*
X452165D01*
Y376575D01*
X453543D01*
X454134Y375984D01*
D02*
G37*
G36*
X469095Y363583D02*
X467717D01*
X467126Y364173D01*
Y364764D01*
X469095D01*
Y363583D01*
D02*
G37*
G36*
X467126Y362992D02*
Y361614D01*
X465945D01*
Y363583D01*
X466535D01*
X467126Y362992D01*
D02*
G37*
G36*
Y377165D02*
X466535Y376575D01*
X465945D01*
Y378543D01*
X467126D01*
Y377165D01*
D02*
G37*
G36*
X469095Y375394D02*
X467126D01*
Y375984D01*
X467717Y376575D01*
X469095D01*
Y375394D01*
D02*
G37*
D11*
X437008Y409941D02*
Y415354D01*
X436811Y398819D02*
X437222Y399230D01*
X436713Y402756D02*
X437008Y403051D01*
X438215Y399230D02*
X438272Y399287D01*
X437222Y399230D02*
X438215D01*
X430709Y402756D02*
X436713D01*
X441929Y404134D02*
X446850Y399213D01*
X441929Y404134D02*
Y426575D01*
X446850Y388583D02*
Y399213D01*
X429676Y410630D02*
X433989Y414943D01*
X436597D02*
X437008Y415354D01*
X425984Y410630D02*
X429676D01*
X433989Y414943D02*
X436597D01*
X469291Y425197D02*
Y427953D01*
Y417323D02*
X472284Y414331D01*
Y409449D02*
Y414331D01*
X469291Y417323D02*
Y419685D01*
X465748D02*
X468898D01*
X465748Y419685D02*
X465748Y419685D01*
X462402Y406890D02*
Y430118D01*
Y403740D02*
Y406890D01*
X491732Y374803D02*
Y379921D01*
Y374803D02*
X492126Y374410D01*
X466535Y379528D02*
X468898Y381890D01*
X468898D01*
X466535Y377559D02*
Y379528D01*
X468898Y394882D02*
X473228Y399213D01*
X468898Y381890D02*
Y394882D01*
X477165Y415354D02*
Y417126D01*
Y409567D02*
Y415354D01*
X491918Y409264D02*
X493164D01*
X491732Y409449D02*
X491918Y409264D01*
X495472Y406955D02*
X495669D01*
X493164Y409264D02*
X495472Y406955D01*
X473228Y399213D02*
X485039D01*
X487284Y401457D01*
Y409449D01*
X461493Y383934D02*
X464869D01*
X479134Y359842D02*
X482677D01*
X473622D02*
Y366929D01*
X462598Y360630D02*
X463386Y359842D01*
X473622D01*
X462598Y360630D02*
Y362697D01*
X482021Y374016D02*
X483203Y372835D01*
X479134Y374016D02*
X482021D01*
X483203Y372835D02*
X483465D01*
X487402Y359842D02*
Y368898D01*
X481426Y367253D02*
X488062Y373889D01*
X479458Y367253D02*
X481426D01*
X488062Y373889D02*
X491606D01*
X479134Y366929D02*
X479458Y367253D01*
X491606Y373889D02*
X492126Y374410D01*
X490945Y388189D02*
X495669D01*
X490945Y388189D02*
X490945Y388189D01*
X487284Y388189D02*
X490945D01*
X495669Y411417D02*
Y414698D01*
X446850Y367717D02*
X451181Y372047D01*
X453248D01*
X446850Y355512D02*
Y367717D01*
X496850Y354331D02*
Y359842D01*
X468012Y374016D02*
X473622D01*
X479134Y373819D02*
Y374016D01*
X482283Y412205D02*
X490289Y420210D01*
X495669D01*
X482283Y409449D02*
Y412205D01*
X472284Y388189D02*
X476654D01*
X455905Y383858D02*
Y394094D01*
X428976Y369449D02*
X429134Y369291D01*
X419291Y369606D02*
X419449Y369449D01*
X428976D01*
X476968Y385827D02*
Y388189D01*
X476654D02*
X476968Y388503D01*
Y388583D01*
X477165Y409567D02*
X477283Y409449D01*
X480905Y420866D02*
X481102D01*
X477165Y417126D02*
X480905Y420866D01*
X491732Y433465D02*
X495669D01*
X489764Y435433D02*
X491732Y433465D01*
X485827Y435433D02*
X489764D01*
X476378D02*
X485827D01*
X495669Y420210D02*
Y427953D01*
X482283Y388189D02*
Y390945D01*
X485039Y393701D02*
X495669D01*
X482283Y390945D02*
X485039Y393701D01*
X495669D02*
Y401444D01*
X460630Y357480D02*
Y362697D01*
X463779Y354331D02*
X475984D01*
X460630Y357480D02*
X463779Y354331D01*
X475984D02*
X481693Y348622D01*
X488504D01*
X444988Y429831D02*
X445866Y430709D01*
X446063D01*
X441929Y426575D02*
X444988Y429634D01*
Y429831D01*
X425787Y410433D02*
X425984Y410630D01*
X454724Y427559D02*
Y430315D01*
Y423721D02*
Y427559D01*
X454232Y423228D02*
X454724Y423721D01*
X452756Y347244D02*
Y350000D01*
X438583Y377205D02*
Y380315D01*
X437008Y375630D02*
X438583Y377205D01*
X435039Y377598D02*
Y380315D01*
Y377598D02*
X437008Y375630D01*
X461417Y383858D02*
X461493Y383934D01*
X462205Y436221D02*
X462598Y435827D01*
X454724Y436221D02*
X462205D01*
X446063Y436221D02*
X450000D01*
X446063Y436221D02*
X446063Y436221D01*
X461811Y398917D02*
Y403150D01*
Y398917D02*
X462106Y398622D01*
X461811Y403150D02*
X462402Y403740D01*
X455217Y394783D02*
Y398622D01*
Y394783D02*
X455905Y394094D01*
X454724Y399114D02*
X455217Y398622D01*
X454724Y399114D02*
Y403150D01*
X454823Y403248D01*
Y406791D02*
X454921Y406890D01*
X454823Y403248D02*
Y406791D01*
X447244Y407185D02*
X454626D01*
X454921Y406890D01*
X428346Y381496D02*
Y382645D01*
X427576Y381496D02*
X428346Y382645D01*
X427576Y381496D02*
X428346D01*
X427576Y381496D02*
X427576Y381496D01*
X486969Y385275D02*
X487598Y384646D01*
X423622Y391142D02*
X424223Y391743D01*
X422402Y389921D02*
X423622Y391142D01*
X512047Y389606D02*
X513779D01*
X510669D02*
X512047D01*
X436811Y394252D02*
Y398819D01*
Y394252D02*
X437008Y394055D01*
X447244Y423130D02*
X447342Y423228D01*
X447244Y418110D02*
Y423130D01*
Y414075D02*
Y418110D01*
X451476Y414075D02*
X453740Y416339D01*
X447244Y414075D02*
X451476D01*
X462402Y430118D02*
X462598Y430315D01*
X453740Y416339D02*
X458268D01*
X458661Y415945D01*
X461417Y390748D02*
Y398327D01*
Y383858D02*
Y390748D01*
Y381102D02*
X462598Y379921D01*
Y377461D02*
Y379921D01*
X461417Y381102D02*
Y383858D01*
X446850Y375984D02*
X448819Y374016D01*
X446850Y375984D02*
Y383071D01*
X450394Y376333D02*
Y376500D01*
Y376333D02*
X450627Y376100D01*
X453034D01*
X453150Y375984D01*
X448819Y374016D02*
X453248D01*
X508848Y387785D02*
X510669Y389606D01*
X503937Y387795D02*
X504122Y387981D01*
X454699Y379946D02*
X454724Y379921D01*
Y377559D02*
Y379921D01*
X464673Y334252D02*
X466929Y336508D01*
Y336614D01*
X462598Y334252D02*
X464673D01*
X462598Y339764D02*
X464673D01*
X466929Y337508D02*
X469185Y339764D01*
X471260D01*
X466929Y336614D02*
Y337508D01*
X464673Y339764D02*
X466929Y337508D01*
X469185Y334252D02*
X471260D01*
X466929Y336508D02*
X469185Y334252D01*
X466929Y337508D02*
Y344882D01*
X467717Y345669D02*
Y348425D01*
X466929Y344882D02*
X467717Y345669D01*
X464567Y348425D02*
X467717D01*
X470669D01*
X446850Y343583D02*
Y350000D01*
X452634Y362775D02*
Y363614D01*
X450976Y361117D02*
X452634Y362775D01*
X450714Y361117D02*
X450976D01*
X456693Y336614D02*
X457607Y337528D01*
Y344221D01*
X459055Y345669D01*
Y348425D01*
Y351181D01*
X456693Y353543D02*
X459055Y351181D01*
X456693Y353543D02*
Y362697D01*
X453150Y364129D02*
Y364173D01*
X452634Y363614D02*
X453150Y364129D01*
Y355906D02*
Y358661D01*
X452756Y355512D02*
X453150Y355906D01*
Y358661D02*
X454724Y360236D01*
Y362598D01*
X486969Y385275D02*
Y385827D01*
X486988Y385807D01*
X446850Y334646D02*
Y338583D01*
X503937Y374016D02*
X504095D01*
X509685Y379606D02*
X513779D01*
X503937Y369685D02*
X503976Y369646D01*
X513740D02*
X513779Y369606D01*
X481929Y385787D02*
X481968Y385827D01*
X464567Y374016D02*
Y377461D01*
X461244D02*
X462598D01*
X493504Y344685D02*
Y348622D01*
X493307Y341732D02*
Y344488D01*
X493504Y344685D01*
X487795Y341929D02*
Y344882D01*
Y341732D02*
Y341929D01*
X488583Y345669D02*
Y348543D01*
X488504Y348622D02*
X488583Y348543D01*
X487795Y344882D02*
X488583Y345669D01*
X486917Y342807D02*
X487795Y341929D01*
X458661Y355315D02*
X461614Y352362D01*
X458661Y355315D02*
Y362697D01*
X461614Y352362D02*
X472441D01*
X476181Y348622D01*
X476378Y336614D02*
Y340551D01*
X476181Y340748D02*
Y348425D01*
Y340748D02*
X476378Y340551D01*
X476181Y348425D02*
Y348622D01*
D35*
X420870Y379765D02*
D03*
D36*
X419291Y399606D02*
D03*
X513779D02*
D03*
D37*
X419291Y389606D02*
D03*
Y379606D02*
D03*
Y369606D02*
D03*
X513779Y389606D02*
D03*
Y379606D02*
D03*
Y369606D02*
D03*
D38*
X495669Y420210D02*
D03*
Y414698D02*
D03*
X446850Y350000D02*
D03*
Y355512D02*
D03*
X495669Y388189D02*
D03*
Y393701D02*
D03*
Y406955D02*
D03*
Y401444D02*
D03*
Y427953D02*
D03*
Y433465D02*
D03*
X469291Y425197D02*
D03*
Y419685D02*
D03*
X446063Y436221D02*
D03*
Y430709D02*
D03*
X462598Y435827D02*
D03*
Y430315D02*
D03*
X454724Y430709D02*
D03*
Y436221D02*
D03*
X446850Y388583D02*
D03*
Y383071D02*
D03*
X452756Y355512D02*
D03*
Y350000D02*
D03*
D39*
X457087Y336614D02*
D03*
X466929D02*
D03*
X476772D02*
D03*
D40*
X481102Y420866D02*
D03*
X492126Y374410D02*
D03*
D41*
X485827Y435433D02*
D03*
X476378D02*
D03*
X496850Y359842D02*
D03*
X487402D02*
D03*
D42*
X472284Y388189D02*
D03*
D43*
X487284D02*
D03*
X477283D02*
D03*
X482283D02*
D03*
X477283Y409449D02*
D03*
X487284D02*
D03*
X472284D02*
D03*
X482283D02*
D03*
D44*
X446850Y338583D02*
D03*
Y343583D02*
D03*
X488504Y348622D02*
D03*
X493504D02*
D03*
D45*
X453150Y364173D02*
D03*
Y375984D02*
D03*
X468110D02*
D03*
Y364173D02*
D03*
D46*
X453248Y366142D02*
D03*
Y368110D02*
D03*
Y370079D02*
D03*
Y372047D02*
D03*
Y374016D02*
D03*
X468012D02*
D03*
Y372047D02*
D03*
Y370079D02*
D03*
Y368110D02*
D03*
Y366142D02*
D03*
D47*
X454724Y377559D02*
D03*
X466535D02*
D03*
Y362598D02*
D03*
X454724D02*
D03*
D48*
X456693Y377461D02*
D03*
X458661D02*
D03*
X460630D02*
D03*
X462598D02*
D03*
X464567D02*
D03*
Y362697D02*
D03*
X462598D02*
D03*
X460630D02*
D03*
X458661D02*
D03*
X456693D02*
D03*
D49*
X437008Y394055D02*
D03*
Y375630D02*
D03*
D50*
X454921Y406890D02*
D03*
X462402D02*
D03*
X458661Y415945D02*
D03*
D51*
X414764Y410433D02*
D03*
X425787D02*
D03*
D52*
X462106Y398622D02*
D03*
X455217D02*
D03*
X447342Y423228D02*
D03*
X454232D02*
D03*
D53*
X447244Y414075D02*
D03*
Y407185D02*
D03*
X437008Y409941D02*
D03*
Y403051D02*
D03*
D54*
X455905Y383858D02*
D03*
X461417D02*
D03*
X455905Y390748D02*
D03*
X461417D02*
D03*
X479134Y359842D02*
D03*
X473622D02*
D03*
X479134Y366929D02*
D03*
X473622D02*
D03*
X487795Y341732D02*
D03*
X493307D02*
D03*
X473622Y374016D02*
D03*
X479134D02*
D03*
X470669Y348425D02*
D03*
X476181D02*
D03*
X464567D02*
D03*
X459055D02*
D03*
D55*
X420870Y379765D02*
X422139Y381034D01*
X420719Y379606D02*
Y379614D01*
X419291Y379606D02*
X420719D01*
Y379614D02*
X420870Y379765D01*
X422139Y381034D02*
X427884D01*
X502953Y397638D02*
Y401575D01*
Y397638D02*
X509842D01*
X502953Y401575D02*
X511811D01*
D56*
X428270Y378030D02*
Y381419D01*
X503937Y391339D02*
X512047D01*
X503937Y387795D02*
Y390748D01*
X428346Y388189D02*
Y391142D01*
X423622D02*
X428346D01*
X425711Y388189D02*
X428346D01*
X423811Y377953D02*
X428346D01*
X420827Y391142D02*
X423622D01*
X512047Y391339D02*
X513779Y389606D01*
X503937Y390748D02*
Y391339D01*
X419291Y389606D02*
X420827Y391142D01*
X422475Y388853D02*
X425047D01*
X425711Y388189D01*
X422402Y388779D02*
X422475Y388853D01*
X503947Y387785D02*
X508848D01*
X414764Y401575D02*
X416732Y399606D01*
X419291D01*
X414764Y401575D02*
Y410433D01*
D57*
X504095Y374016D02*
X509685Y379606D01*
X503976Y369646D02*
X513740D01*
D58*
X437008Y333347D02*
D03*
Y353346D02*
D03*
Y343347D02*
D03*
D59*
Y363347D02*
D03*
D60*
X420275Y349409D02*
D03*
X512795Y418307D02*
D03*
D61*
X430709Y402756D02*
D03*
X437008Y415354D02*
D03*
X465748Y419685D02*
D03*
X464869Y383934D02*
D03*
X496850Y354331D02*
D03*
X428346Y377953D02*
D03*
Y381496D02*
D03*
X503937Y391339D02*
D03*
X428346Y391142D02*
D03*
Y388189D02*
D03*
X447244Y418110D02*
D03*
X503937Y387795D02*
D03*
X436811Y398819D02*
D03*
X502953Y397638D02*
D03*
Y401575D02*
D03*
D62*
X469291Y427953D02*
D03*
X491732Y379921D02*
D03*
X477165Y415354D02*
D03*
X491732Y409449D02*
D03*
X482677Y359842D02*
D03*
X483465Y372835D02*
D03*
X487402Y368898D02*
D03*
X490945Y388189D02*
D03*
X495669Y411417D02*
D03*
X474803Y388189D02*
D03*
X455905Y394094D02*
D03*
X429134Y369291D02*
D03*
X454724Y427559D02*
D03*
X452756Y347244D02*
D03*
X438583Y380315D02*
D03*
X435039D02*
D03*
X450000Y436221D02*
D03*
X454724Y403150D02*
D03*
X450394Y376500D02*
D03*
X454699Y379946D02*
D03*
X462598Y334252D02*
D03*
Y339764D02*
D03*
X471260D02*
D03*
Y334252D02*
D03*
X467717Y348425D02*
D03*
X450714Y361117D02*
D03*
X453150Y358661D02*
D03*
X464567Y374016D02*
D03*
X446850Y334646D02*
D03*
X503937Y374016D02*
D03*
Y369685D02*
D03*
X493504Y344685D02*
D03*
M02*
