G04*
G04 #@! TF.GenerationSoftware,Altium Limited,Altium Designer,22.0.2 (36)*
G04*
G04 Layer_Color=65535*
%FSLAX25Y25*%
%MOIN*%
G70*
G04*
G04 #@! TF.SameCoordinates,8AFDD3F0-81C4-4118-9C40-4E65E406D428*
G04*
G04*
G04 #@! TF.FilePolarity,Positive*
G04*
G01*
G75*
%ADD10C,0.00787*%
%ADD11C,0.01000*%
%ADD12C,0.00984*%
%ADD13C,0.00394*%
%ADD14C,0.00591*%
D10*
X469783Y397569D02*
G03*
X469783Y400069I0J1250D01*
G01*
X455118Y359252D02*
G03*
X455118Y359252I-394J0D01*
G01*
X469783Y395413D02*
X489783D01*
Y402224D01*
X469783D02*
X489783D01*
X469783Y400069D02*
Y402224D01*
Y395413D02*
Y397569D01*
X442323Y376181D02*
Y393504D01*
X431693Y376181D02*
Y393504D01*
X441575D02*
X442323D01*
X441575Y376181D02*
X442323D01*
X431693Y393504D02*
X432441D01*
X431693Y376181D02*
X432441D01*
X452756Y410236D02*
Y414173D01*
X455905D01*
X464567Y410236D02*
Y414173D01*
X461417D02*
X464567D01*
X444095Y438583D02*
X448032D01*
X460630Y438189D02*
X464567D01*
D11*
X522472Y417884D02*
G03*
X522472Y417884I-9843J0D01*
G01*
X430118Y349409D02*
G03*
X430118Y349409I-9843J0D01*
G01*
X432008Y368347D02*
X442008D01*
Y328346D02*
Y368347D01*
X432008Y328346D02*
X442008D01*
X432008D02*
Y368347D01*
D12*
X442658Y396063D02*
G03*
X442658Y396063I-492J0D01*
G01*
X455453Y411417D02*
G03*
X455453Y411417I-492J0D01*
G01*
X410236Y404606D02*
X428346D01*
Y364606D02*
Y404606D01*
X410236Y364606D02*
X428346D01*
X410236D02*
Y404606D01*
X504724D02*
X522835D01*
Y364606D02*
Y404606D01*
X504724Y364606D02*
X522835D01*
X504724D02*
Y404606D01*
D13*
X493307Y422375D02*
X498032D01*
X493307Y412533D02*
Y422375D01*
Y412533D02*
X498032D01*
Y422375D01*
X451181Y344488D02*
X482677D01*
Y328740D02*
Y344488D01*
X451181Y328740D02*
X482677D01*
X451181D02*
Y344488D01*
X473228Y417323D02*
X488976D01*
X473228D02*
Y438583D01*
X488976D01*
Y417323D02*
Y438583D01*
X444488Y347835D02*
X449213D01*
Y357677D01*
X444488D02*
X449213D01*
X444488Y347835D02*
Y357677D01*
X498032Y386024D02*
Y395866D01*
X493307Y386024D02*
X498032D01*
X493307D02*
Y395866D01*
X498032D01*
X493307Y399278D02*
Y409121D01*
X498032D01*
Y399278D02*
Y409121D01*
X493307Y399278D02*
X498032D01*
Y425787D02*
Y435630D01*
X493307Y425787D02*
X498032D01*
X493307D02*
Y435630D01*
X498032D01*
X466929Y417520D02*
Y427362D01*
X471654D01*
Y417520D02*
Y427362D01*
X466929Y417520D02*
X471654D01*
X453740Y381496D02*
X463583D01*
X453740D02*
Y386221D01*
X463583D01*
Y381496D02*
Y386221D01*
X453740Y388386D02*
X463583D01*
X453740D02*
Y393110D01*
X463583D01*
Y388386D02*
Y393110D01*
X471457Y362205D02*
X481299D01*
Y357480D02*
Y362205D01*
X471457Y357480D02*
X481299D01*
X471457D02*
Y362205D01*
Y369291D02*
X481299D01*
Y364567D02*
Y369291D01*
X471457Y364567D02*
X481299D01*
X471457D02*
Y369291D01*
X485630Y339370D02*
X495472D01*
X485630D02*
Y344094D01*
X495472D01*
Y339370D02*
Y344094D01*
X457087Y428543D02*
Y438386D01*
X452362Y428543D02*
X457087D01*
X452362D02*
Y438386D01*
X457087D01*
X444488Y380906D02*
Y390748D01*
X449213D01*
Y380906D02*
Y390748D01*
X444488Y380906D02*
X449213D01*
X471457Y371654D02*
X481299D01*
X471457D02*
Y376378D01*
X481299D01*
Y371654D02*
Y376378D01*
X484252Y356693D02*
Y377953D01*
Y356693D02*
X500000D01*
Y377953D01*
X484252D02*
X500000D01*
X450394Y347835D02*
Y357677D01*
X455118D01*
Y347835D02*
Y357677D01*
X450394Y347835D02*
X455118D01*
X468504Y346063D02*
X478346D01*
X468504D02*
Y350787D01*
X478346D01*
Y346063D02*
Y350787D01*
X456890D02*
X466732D01*
Y346063D02*
Y350787D01*
X456890Y346063D02*
X466732D01*
X456890D02*
Y350787D01*
D14*
X429331Y413583D02*
Y414764D01*
X411221D02*
X429331D01*
X411221Y413583D02*
Y414764D01*
Y406102D02*
Y407283D01*
Y406102D02*
X429331D01*
Y407283D01*
X465354Y395079D02*
Y395866D01*
X451968Y395079D02*
X465354D01*
X451968D02*
Y395866D01*
X465354Y401378D02*
Y402165D01*
X451968D02*
X465354D01*
X451968Y401378D02*
Y402165D01*
X450000Y417323D02*
X450787D01*
Y403937D02*
Y417323D01*
X450000Y403937D02*
X450787D01*
X443701Y417323D02*
X444488D01*
X443701Y403937D02*
Y417323D01*
Y403937D02*
X444488D01*
X439764Y413189D02*
X440551D01*
Y399803D02*
Y413189D01*
X439764Y399803D02*
X440551D01*
X433465Y413189D02*
X434252D01*
X433465Y399803D02*
Y413189D01*
Y399803D02*
X434252D01*
X444095Y425984D02*
Y426772D01*
X457480D01*
Y425984D02*
Y426772D01*
X444095Y419685D02*
Y420472D01*
Y419685D02*
X457480D01*
Y420472D01*
M02*
