G04*
G04 #@! TF.GenerationSoftware,Altium Limited,Altium Designer,22.0.2 (36)*
G04*
G04 Layer_Color=65535*
%FSLAX25Y25*%
%MOIN*%
G70*
G04*
G04 #@! TF.SameCoordinates,F94F0514-AA83-4675-BD86-3750A4AD6AA8*
G04*
G04*
G04 #@! TF.FilePolarity,Positive*
G04*
G01*
G75*
%ADD10C,0.00787*%
%ADD11C,0.00984*%
%ADD12C,0.01000*%
%ADD13C,0.00394*%
%ADD14C,0.00591*%
D10*
X469783Y397569D02*
G03*
X469783Y400069I0J1250D01*
G01*
X455118Y359252D02*
G03*
X455118Y359252I-394J0D01*
G01*
X469783Y395413D02*
X489783D01*
Y402224D01*
X469783D02*
X489783D01*
X469783Y400069D02*
Y402224D01*
Y395413D02*
Y397569D01*
X442323Y376181D02*
Y393504D01*
X431693Y376181D02*
Y393504D01*
X441575D02*
X442323D01*
X441575Y376181D02*
X442323D01*
X431693Y393504D02*
X432441D01*
X431693Y376181D02*
X432441D01*
X452756Y410236D02*
Y414173D01*
X455905D01*
X464567Y410236D02*
Y414173D01*
X461417D02*
X464567D01*
X444095Y438583D02*
X448032D01*
X460630Y438189D02*
X464567D01*
X445014Y362205D02*
X444489Y362730D01*
Y363779D01*
X445014Y364304D01*
X445539D01*
X446064Y363779D01*
Y363254D01*
Y363779D01*
X446588Y364304D01*
X447113D01*
X447638Y363779D01*
Y362730D01*
X447113Y362205D01*
X444489Y365353D02*
X446588D01*
X447638Y366403D01*
X446588Y367452D01*
X444489D01*
X445014Y368502D02*
X444489Y369027D01*
Y370076D01*
X445014Y370601D01*
X445539D01*
X446064Y370076D01*
Y369551D01*
Y370076D01*
X446588Y370601D01*
X447113D01*
X447638Y370076D01*
Y369027D01*
X447113Y368502D01*
X428085Y343831D02*
X427560Y343307D01*
Y342257D01*
X428085Y341732D01*
X430184D01*
X430709Y342257D01*
Y343307D01*
X430184Y343831D01*
X429134D01*
Y342782D01*
X430709Y344881D02*
X427560D01*
X430709Y346980D01*
X427560D01*
Y348029D02*
X430709D01*
Y349604D01*
X430184Y350129D01*
X428085D01*
X427560Y349604D01*
Y348029D01*
X422965Y336876D02*
X422440Y337401D01*
X421391D01*
X420866Y336876D01*
Y336351D01*
X421391Y335826D01*
X422440D01*
X422965Y335301D01*
Y334777D01*
X422440Y334252D01*
X421391D01*
X420866Y334777D01*
X424015Y337401D02*
Y334252D01*
X425064Y335301D01*
X426114Y334252D01*
Y337401D01*
X427163D02*
Y334252D01*
X428738D01*
X429262Y334777D01*
Y336876D01*
X428738Y337401D01*
X427163D01*
X422965Y361285D02*
X422440Y361810D01*
X421391D01*
X420866Y361285D01*
Y360760D01*
X421391Y360236D01*
X422440D01*
X422965Y359711D01*
Y359186D01*
X422440Y358661D01*
X421391D01*
X420866Y359186D01*
X424015Y361810D02*
Y358661D01*
X425064Y359711D01*
X426114Y358661D01*
Y361810D01*
X429262Y361285D02*
X428738Y361810D01*
X427688D01*
X427163Y361285D01*
Y359186D01*
X427688Y358661D01*
X428738D01*
X429262Y359186D01*
X485827Y350000D02*
Y353936D01*
X487795D01*
X488451Y353280D01*
Y351968D01*
X487795Y351312D01*
X485827D01*
X487139D02*
X488451Y350000D01*
X492386Y353280D02*
X491730Y353936D01*
X490418D01*
X489762Y353280D01*
Y352624D01*
X490418Y351968D01*
X491730D01*
X492386Y351312D01*
Y350656D01*
X491730Y350000D01*
X490418D01*
X489762Y350656D01*
X493698Y353936D02*
X496322D01*
X495010D01*
Y350000D01*
X508136Y360760D02*
X507480Y361416D01*
X506168D01*
X505512Y360760D01*
Y358136D01*
X506168Y357480D01*
X507480D01*
X508136Y358136D01*
X509447Y357480D02*
Y360104D01*
X510759Y361416D01*
X512071Y360104D01*
Y357480D01*
Y359448D01*
X509447D01*
X513383Y361416D02*
Y357480D01*
X516007D01*
X505773Y432807D02*
X505118Y433463D01*
X503806D01*
X503150Y432807D01*
Y430184D01*
X503806Y429528D01*
X505118D01*
X505773Y430184D01*
Y431495D01*
X504461D01*
X507085Y429528D02*
Y432151D01*
X508397Y433463D01*
X509709Y432151D01*
Y429528D01*
Y431495D01*
X507085D01*
X511021Y433463D02*
X512333D01*
X511677D01*
Y429528D01*
X511021D01*
X512333D01*
X514301D02*
Y433463D01*
X516925Y429528D01*
Y433463D01*
X470866Y429134D02*
X467718D01*
Y430708D01*
X468242Y431233D01*
X469292D01*
X469817Y430708D01*
Y429134D01*
X467718Y432282D02*
X470866D01*
X469817Y433332D01*
X470866Y434381D01*
X467718D01*
X470866Y435431D02*
X467718D01*
Y437005D01*
X468242Y437530D01*
X469292D01*
X469817Y437005D01*
Y435431D01*
Y436481D02*
X470866Y437530D01*
X438715Y429264D02*
X438190Y428740D01*
Y427690D01*
X438715Y427165D01*
X439240D01*
X439764Y427690D01*
Y428740D01*
X440289Y429264D01*
X440814D01*
X441339Y428740D01*
Y427690D01*
X440814Y427165D01*
X438190Y430314D02*
Y432413D01*
Y431363D01*
X441339D01*
Y433462D02*
X439240D01*
X438190Y434512D01*
X439240Y435562D01*
X441339D01*
X439764D01*
Y433462D01*
X438190Y436611D02*
Y438710D01*
Y437661D01*
X441339D01*
D11*
X442658Y396063D02*
G03*
X442658Y396063I-492J0D01*
G01*
X455453Y411417D02*
G03*
X455453Y411417I-492J0D01*
G01*
X410236Y404606D02*
X428346D01*
Y364606D02*
Y404606D01*
X410236Y364606D02*
X428346D01*
X410236D02*
Y404606D01*
X504724D02*
X522835D01*
Y364606D02*
Y404606D01*
X504724Y364606D02*
X522835D01*
X504724D02*
Y404606D01*
D12*
X427953Y357087D02*
X429528Y355512D01*
X431890D01*
X490551Y424016D02*
X499213D01*
X502756Y427559D01*
X517717D01*
X501181Y355512D02*
X516142D01*
X500000Y356693D02*
X501181Y355512D01*
X432008Y370905D02*
X442008D01*
Y330906D02*
Y370905D01*
X432008Y330906D02*
X442008D01*
X432008D02*
Y370905D01*
D13*
X493307Y422375D02*
X498032D01*
X493307Y412533D02*
Y422375D01*
Y412533D02*
X498032D01*
Y422375D01*
X451181Y344488D02*
X482677D01*
Y328740D02*
Y344488D01*
X451181Y328740D02*
X482677D01*
X451181D02*
Y344488D01*
X473228Y417323D02*
X488976D01*
X473228D02*
Y438583D01*
X488976D01*
Y417323D02*
Y438583D01*
X444488Y347835D02*
X449213D01*
Y357677D01*
X444488D02*
X449213D01*
X444488Y347835D02*
Y357677D01*
X498032Y386024D02*
Y395866D01*
X493307Y386024D02*
X498032D01*
X493307D02*
Y395866D01*
X498032D01*
X493307Y399278D02*
Y409121D01*
X498032D01*
Y399278D02*
Y409121D01*
X493307Y399278D02*
X498032D01*
Y425787D02*
Y435630D01*
X493307Y425787D02*
X498032D01*
X493307D02*
Y435630D01*
X498032D01*
X466929Y417520D02*
Y427362D01*
X471654D01*
Y417520D02*
Y427362D01*
X466929Y417520D02*
X471654D01*
X453740Y381496D02*
X463583D01*
X453740D02*
Y386221D01*
X463583D01*
Y381496D02*
Y386221D01*
X453740Y388386D02*
X463583D01*
X453740D02*
Y393110D01*
X463583D01*
Y388386D02*
Y393110D01*
X471457Y362205D02*
X481299D01*
Y357480D02*
Y362205D01*
X471457Y357480D02*
X481299D01*
X471457D02*
Y362205D01*
Y369291D02*
X481299D01*
Y364567D02*
Y369291D01*
X471457Y364567D02*
X481299D01*
X471457D02*
Y369291D01*
X485630Y338189D02*
X495472D01*
X485630D02*
Y342913D01*
X495472D01*
Y338189D02*
Y342913D01*
X457087Y428543D02*
Y438386D01*
X452362Y428543D02*
X457087D01*
X452362D02*
Y438386D01*
X457087D01*
X444488Y380906D02*
Y390748D01*
X449213D01*
Y380906D02*
Y390748D01*
X444488Y380906D02*
X449213D01*
X471457Y371654D02*
X481299D01*
X471457D02*
Y376378D01*
X481299D01*
Y371654D02*
Y376378D01*
X484252Y356693D02*
Y377953D01*
Y356693D02*
X500000D01*
Y377953D01*
X484252D02*
X500000D01*
X450394Y347835D02*
Y357677D01*
X455118D01*
Y347835D02*
Y357677D01*
X450394Y347835D02*
X455118D01*
X468504Y346063D02*
X478346D01*
X468504D02*
Y350787D01*
X478346D01*
Y346063D02*
Y350787D01*
X456890D02*
X466732D01*
Y346063D02*
Y350787D01*
X456890Y346063D02*
X466732D01*
X456890D02*
Y350787D01*
D14*
X429331Y413583D02*
Y414764D01*
X411221D02*
X429331D01*
X411221Y413583D02*
Y414764D01*
Y406102D02*
Y407283D01*
Y406102D02*
X429331D01*
Y407283D01*
X465354Y395079D02*
Y395866D01*
X451968Y395079D02*
X465354D01*
X451968D02*
Y395866D01*
X465354Y401378D02*
Y402165D01*
X451968D02*
X465354D01*
X451968Y401378D02*
Y402165D01*
X450000Y417323D02*
X450787D01*
Y403937D02*
Y417323D01*
X450000Y403937D02*
X450787D01*
X443701Y417323D02*
X444488D01*
X443701Y403937D02*
Y417323D01*
Y403937D02*
X444488D01*
X439764Y413189D02*
X440551D01*
Y399803D02*
Y413189D01*
X439764Y399803D02*
X440551D01*
X433465Y413189D02*
X434252D01*
X433465Y399803D02*
Y413189D01*
Y399803D02*
X434252D01*
X444095Y425984D02*
Y426772D01*
X457480D01*
Y425984D02*
Y426772D01*
X444095Y419685D02*
Y420472D01*
Y419685D02*
X457480D01*
Y420472D01*
M02*
