G04*
G04 #@! TF.GenerationSoftware,Altium Limited,Altium Designer,22.0.2 (36)*
G04*
G04 Layer_Physical_Order=2*
G04 Layer_Color=16711680*
%FSLAX25Y25*%
%MOIN*%
G70*
G04*
G04 #@! TF.SameCoordinates,B03BCD74-A696-4613-816A-9D7F6362DEEE*
G04*
G04*
G04 #@! TF.FilePolarity,Positive*
G04*
G01*
G75*
%ADD12C,0.01000*%
%ADD56C,0.02362*%
%ADD59C,0.03150*%
%ADD61C,0.06000*%
%ADD62R,0.06000X0.06000*%
%ADD63C,0.09843*%
%ADD64C,0.03150*%
%ADD65C,0.01968*%
G36*
X520201Y439271D02*
X520692Y439099D01*
X521132Y438823D01*
X521500Y438455D01*
X521776Y438015D01*
X521948Y437524D01*
X522016Y436918D01*
Y352984D01*
X510827D01*
X510749Y352968D01*
X510669Y352976D01*
X508365Y352749D01*
X508214Y352703D01*
X508056Y352688D01*
X505841Y352015D01*
X505701Y351941D01*
X505550Y351895D01*
X503508Y350803D01*
X503386Y350703D01*
X503246Y350629D01*
X501456Y349160D01*
X501356Y349038D01*
X501234Y348937D01*
X499765Y347147D01*
X499690Y347008D01*
X499590Y346886D01*
X498499Y344844D01*
X498453Y344692D01*
X498378Y344553D01*
X497706Y342337D01*
X497691Y342180D01*
X497645Y342028D01*
X497418Y339724D01*
X497426Y339645D01*
X497410Y339567D01*
Y328377D01*
X413476Y328377D01*
X412869Y328446D01*
X412379Y328617D01*
X411938Y328894D01*
X411571Y329261D01*
X411294Y329701D01*
X411123Y330192D01*
X411054Y330799D01*
Y414733D01*
X422244D01*
X422322Y414748D01*
X422401Y414741D01*
X424706Y414968D01*
X424857Y415014D01*
X425014Y415029D01*
X427230Y415701D01*
X427369Y415776D01*
X427521Y415822D01*
X429563Y416913D01*
X429685Y417013D01*
X429824Y417088D01*
X431614Y418557D01*
X431715Y418679D01*
X431837Y418779D01*
X433306Y420569D01*
X433380Y420709D01*
X433481Y420831D01*
X434572Y422873D01*
X434618Y423024D01*
X434692Y423164D01*
X435364Y425379D01*
X435380Y425537D01*
X435426Y425688D01*
X435653Y427992D01*
X435645Y428071D01*
X435661Y428150D01*
Y439339D01*
X519595D01*
X520201Y439271D01*
D02*
G37*
%LPC*%
G36*
X512795Y424257D02*
X511634Y424143D01*
X510518Y423804D01*
X509490Y423254D01*
X508588Y422514D01*
X507848Y421613D01*
X507298Y420584D01*
X506960Y419468D01*
X506845Y418307D01*
X506960Y417146D01*
X507298Y416030D01*
X507848Y415001D01*
X508588Y414100D01*
X509490Y413360D01*
X510518Y412810D01*
X511634Y412471D01*
X512795Y412357D01*
X513956Y412471D01*
X515072Y412810D01*
X516101Y413360D01*
X517002Y414100D01*
X517742Y415001D01*
X518292Y416030D01*
X518631Y417146D01*
X518745Y418307D01*
X518631Y419468D01*
X518292Y420584D01*
X517742Y421613D01*
X517002Y422514D01*
X516101Y423254D01*
X515072Y423804D01*
X513956Y424143D01*
X512795Y424257D01*
D02*
G37*
G36*
X477165Y417378D02*
X476391Y417223D01*
X475735Y416785D01*
X475296Y416128D01*
X475142Y415354D01*
X475296Y414580D01*
X475735Y413924D01*
X476391Y413485D01*
X476991Y413366D01*
X482046Y408311D01*
X482542Y407979D01*
X483127Y407863D01*
X489325D01*
X489833Y407523D01*
X490608Y407369D01*
X491382Y407523D01*
X492038Y407962D01*
X492477Y408618D01*
X492631Y409392D01*
X492477Y410167D01*
X492038Y410823D01*
X491382Y411262D01*
X490608Y411415D01*
X489833Y411262D01*
X489325Y410922D01*
X483761D01*
X479154Y415529D01*
X479035Y416128D01*
X478596Y416785D01*
X477940Y417223D01*
X477165Y417378D01*
D02*
G37*
G36*
X502953Y404172D02*
X502281Y404083D01*
X501654Y403824D01*
X501116Y403411D01*
X500704Y402873D01*
X500444Y402247D01*
X500356Y401575D01*
Y397638D01*
X500406Y397254D01*
X495769Y392617D01*
X495437Y392121D01*
X495321Y391535D01*
Y385673D01*
X491558Y381910D01*
X490958Y381790D01*
X490450Y381451D01*
X481342D01*
X477778Y385015D01*
X477281Y385347D01*
X477030Y385397D01*
X476578Y386169D01*
X476568Y386197D01*
X476420Y387038D01*
X476672Y387415D01*
X476826Y388189D01*
X476672Y388963D01*
X476234Y389619D01*
X475577Y390058D01*
X474803Y390212D01*
X474029Y390058D01*
X473521Y389718D01*
X450787D01*
X450202Y389602D01*
X449706Y389270D01*
X431414Y370978D01*
X430259D01*
X429751Y371318D01*
X428976Y371472D01*
X428202Y371318D01*
X427546Y370879D01*
X427107Y370223D01*
X426953Y369449D01*
X427107Y368675D01*
X427546Y368018D01*
X428202Y367580D01*
X428976Y367426D01*
X429751Y367580D01*
X430259Y367919D01*
X432047D01*
X433008Y366537D01*
Y361906D01*
X441008D01*
Y366760D01*
X442959Y368712D01*
X443267Y368772D01*
X443332Y368739D01*
X444492Y367618D01*
X444434Y367323D01*
X444588Y366549D01*
X445026Y365892D01*
X445682Y365454D01*
X446457Y365300D01*
X447231Y365454D01*
X447887Y365892D01*
X448326Y366549D01*
X448445Y367148D01*
X455781Y374484D01*
X456112Y374980D01*
X456229Y375565D01*
Y378664D01*
X456568Y379172D01*
X456722Y379946D01*
X456568Y380721D01*
X456496Y380830D01*
X457211Y382404D01*
X462797D01*
X463033Y382097D01*
X463571Y381685D01*
X464197Y381425D01*
X464869Y381337D01*
X465542Y381425D01*
X466168Y381685D01*
X466706Y382097D01*
X466941Y382404D01*
X476063D01*
X479627Y378840D01*
X480123Y378508D01*
X480709Y378392D01*
X490450D01*
X490958Y378052D01*
X491732Y377898D01*
X492507Y378052D01*
X493163Y378491D01*
X493601Y379147D01*
X493721Y379747D01*
X497932Y383958D01*
X498263Y384454D01*
X498380Y385039D01*
Y390902D01*
X502569Y395091D01*
X502953Y395041D01*
X503625Y395129D01*
X504251Y395389D01*
X504789Y395801D01*
X505202Y396339D01*
X505461Y396966D01*
X505550Y397638D01*
Y401575D01*
X505461Y402247D01*
X505202Y402873D01*
X504789Y403411D01*
X504251Y403824D01*
X503625Y404083D01*
X502953Y404172D01*
D02*
G37*
G36*
X466134Y424649D02*
X441629D01*
X441474Y424618D01*
X441318Y424600D01*
X441281Y424580D01*
X441239Y424572D01*
X441108Y424484D01*
X440970Y424407D01*
X434380Y418815D01*
X434353Y418782D01*
X434318Y418759D01*
X434231Y418627D01*
X434132Y418504D01*
X434121Y418463D01*
X434097Y418428D01*
X434067Y418273D01*
X434023Y418121D01*
X434028Y418079D01*
X434020Y418038D01*
Y388938D01*
X434025Y388912D01*
X434021Y388885D01*
X434064Y388717D01*
X434097Y388548D01*
X434112Y388526D01*
X434119Y388500D01*
X434222Y388361D01*
X434318Y388217D01*
X434340Y388202D01*
X434356Y388181D01*
X435673Y386993D01*
X435680Y386989D01*
X435686Y386982D01*
X435851Y386887D01*
X436015Y386790D01*
X436023Y386788D01*
X436031Y386784D01*
X436220Y386759D01*
X436408Y386732D01*
X436417Y386734D01*
X436426Y386733D01*
X437007Y386773D01*
X437008Y386773D01*
X437011Y386773D01*
X437989Y386841D01*
X437993Y386842D01*
X437998Y386842D01*
X438185Y386894D01*
X438373Y386945D01*
X438376Y386948D01*
X438381Y386949D01*
X438476Y386997D01*
X438479Y387000D01*
X438484Y387001D01*
X438635Y387123D01*
X438788Y387243D01*
X438791Y387247D01*
X438794Y387250D01*
X440150Y388863D01*
X440226Y388999D01*
X440312Y389129D01*
X440321Y389172D01*
X440342Y389211D01*
X440359Y389366D01*
X440390Y389519D01*
Y405877D01*
X448847Y414335D01*
X464961D01*
X465351Y414412D01*
X465682Y414633D01*
X469225Y418177D01*
X469446Y418507D01*
X469523Y418898D01*
Y421260D01*
X469446Y421650D01*
X469225Y421981D01*
X466855Y424351D01*
X466524Y424572D01*
X466134Y424649D01*
D02*
G37*
G36*
X503937Y376039D02*
X503163Y375885D01*
X502506Y375446D01*
X502068Y374790D01*
X501949Y374190D01*
X495036Y367277D01*
X490586D01*
X490359Y367424D01*
X489416Y368852D01*
X489425Y368898D01*
X489271Y369672D01*
X488832Y370328D01*
X488176Y370767D01*
X487576Y370886D01*
X485453Y373009D01*
X485334Y373609D01*
X484895Y374265D01*
X484239Y374704D01*
X483465Y374858D01*
X482690Y374704D01*
X482034Y374265D01*
X481595Y373609D01*
X481441Y372835D01*
X481595Y372060D01*
X482034Y371404D01*
X482690Y370966D01*
X483290Y370846D01*
X485284Y368852D01*
X485242Y368491D01*
X484466Y367437D01*
X484217Y367277D01*
X455344D01*
X454759Y367161D01*
X454263Y366829D01*
X450539Y363106D01*
X449939Y362986D01*
X449283Y362548D01*
X448844Y361891D01*
X448691Y361117D01*
X448844Y360343D01*
X449283Y359686D01*
X449939Y359248D01*
X450714Y359094D01*
X451280Y357887D01*
X451719Y357231D01*
X452375Y356792D01*
X453150Y356638D01*
X453924Y356792D01*
X454580Y357231D01*
X455019Y357887D01*
X455173Y358661D01*
X455019Y359436D01*
X454679Y359944D01*
Y359996D01*
X456539Y361856D01*
X497638D01*
X498223Y361973D01*
X498719Y362304D01*
X504111Y367697D01*
X504711Y367816D01*
X505368Y368254D01*
X505806Y368911D01*
X505960Y369685D01*
X505806Y370459D01*
X505497Y370922D01*
X505368Y371124D01*
Y372577D01*
X505497Y372779D01*
X505806Y373241D01*
X505960Y374016D01*
X505806Y374790D01*
X505368Y375446D01*
X504711Y375885D01*
X503937Y376039D01*
D02*
G37*
G36*
X437008Y359940D02*
X435964Y359803D01*
X434991Y359400D01*
X434155Y358758D01*
X433514Y357923D01*
X433111Y356950D01*
X432973Y355906D01*
X433111Y354861D01*
X433514Y353888D01*
X434155Y353053D01*
X434991Y352412D01*
X435964Y352009D01*
X437008Y351871D01*
X438052Y352009D01*
X439025Y352412D01*
X439861Y353053D01*
X440502Y353888D01*
X440905Y354861D01*
X441042Y355906D01*
X440905Y356950D01*
X440502Y357923D01*
X439861Y358758D01*
X439025Y359400D01*
X438052Y359803D01*
X437008Y359940D01*
D02*
G37*
G36*
X437500Y349859D02*
Y346398D01*
X440962D01*
X440890Y346946D01*
X440488Y347915D01*
X439850Y348747D01*
X439017Y349386D01*
X438048Y349787D01*
X437500Y349859D01*
D02*
G37*
G36*
X436516D02*
X435968Y349787D01*
X434999Y349386D01*
X434166Y348747D01*
X433528Y347915D01*
X433126Y346946D01*
X433054Y346398D01*
X436516D01*
Y349859D01*
D02*
G37*
G36*
X420275Y355359D02*
X419115Y355245D01*
X417999Y354906D01*
X416970Y354357D01*
X416068Y353617D01*
X415328Y352715D01*
X414779Y351686D01*
X414440Y350570D01*
X414326Y349409D01*
X414440Y348249D01*
X414779Y347132D01*
X415328Y346104D01*
X416068Y345202D01*
X416970Y344462D01*
X417999Y343912D01*
X419115Y343574D01*
X420275Y343460D01*
X421436Y343574D01*
X422552Y343912D01*
X423581Y344462D01*
X424483Y345202D01*
X425223Y346104D01*
X425772Y347132D01*
X426111Y348249D01*
X426225Y349409D01*
X426111Y350570D01*
X425772Y351686D01*
X425223Y352715D01*
X424483Y353617D01*
X423581Y354357D01*
X422552Y354906D01*
X421436Y355245D01*
X420275Y355359D01*
D02*
G37*
G36*
X440962Y345413D02*
X437500D01*
Y341952D01*
X438048Y342024D01*
X439017Y342425D01*
X439850Y343064D01*
X440488Y343896D01*
X440890Y344865D01*
X440962Y345413D01*
D02*
G37*
G36*
X436516D02*
X433054D01*
X433126Y344865D01*
X433528Y343896D01*
X434166Y343064D01*
X434999Y342425D01*
X435968Y342024D01*
X436516Y341952D01*
Y345413D01*
D02*
G37*
G36*
X437008Y339940D02*
X435964Y339803D01*
X434991Y339400D01*
X434155Y338758D01*
X433514Y337923D01*
X433111Y336950D01*
X432973Y335906D01*
X433111Y334861D01*
X433514Y333888D01*
X434155Y333053D01*
X434991Y332412D01*
X435964Y332009D01*
X436396Y331952D01*
X436423Y331933D01*
X437008Y331817D01*
X437593Y331933D01*
X437620Y331952D01*
X438052Y332009D01*
X439025Y332412D01*
X439861Y333053D01*
X440502Y333888D01*
X440905Y334861D01*
X441042Y335906D01*
X440905Y336950D01*
X440502Y337923D01*
X439861Y338758D01*
X439025Y339400D01*
X438052Y339803D01*
X437008Y339940D01*
D02*
G37*
%LPD*%
G36*
X466126Y423611D02*
X466205Y423559D01*
X468364Y421400D01*
X468433Y421331D01*
X468485Y421252D01*
X468504Y421159D01*
Y418998D01*
X468485Y418905D01*
X468433Y418827D01*
X465032Y415425D01*
X464953Y415373D01*
X464860Y415354D01*
X448425D01*
X448127Y415056D01*
X439669Y406598D01*
X439370Y406299D01*
Y405877D01*
Y389619D01*
X439359Y389565D01*
Y389523D01*
X439332Y389491D01*
X439305Y389442D01*
X438076Y387980D01*
X438005Y387924D01*
X438002Y387921D01*
X437998Y387919D01*
X437962Y387890D01*
X437918Y387878D01*
X437914Y387876D01*
X437909Y387876D01*
X437823Y387851D01*
X437008Y387795D01*
X436317D01*
X436287Y387812D01*
X435433Y388583D01*
X435052Y388964D01*
X435052Y388967D01*
X435039Y389018D01*
Y417967D01*
X435047Y417993D01*
X435050Y418033D01*
X435078Y418061D01*
X435094Y418084D01*
X439002Y421400D01*
X441553Y423565D01*
X441603Y423593D01*
X441634Y423619D01*
X441673D01*
X441730Y423630D01*
X466034D01*
X466126Y423611D01*
D02*
G37*
D12*
X477165Y415354D02*
X483127Y409392D01*
X490608D01*
X442362Y371260D02*
X445276Y374173D01*
Y377953D02*
X451257Y383934D01*
X445276Y374173D02*
Y377953D01*
X446063Y370472D02*
X449868Y374278D01*
Y376772D01*
X446457Y367323D02*
X454699Y375565D01*
Y379946D01*
X437008Y333347D02*
X438287Y334626D01*
X437008Y335906D02*
X437087D01*
X432047Y369449D02*
X450787Y388189D01*
X428976Y369449D02*
X432047D01*
X496850Y391535D02*
X502953Y397638D01*
X496850Y385039D02*
Y391535D01*
X491732Y379921D02*
X496850Y385039D01*
X480709Y379921D02*
X491732D01*
X476696Y383934D02*
X480709Y379921D01*
X464869Y383934D02*
X476696D01*
X483465Y372835D02*
X487402Y368898D01*
Y368898D02*
Y368898D01*
X451257Y383934D02*
X464869D01*
X450787Y388189D02*
X474803D01*
X450714Y361117D02*
X455344Y365748D01*
X495669D01*
X453150Y360630D02*
X455905Y363386D01*
X497638D01*
X453150Y358661D02*
Y360630D01*
X497638Y363386D02*
X503937Y369685D01*
X495669Y365748D02*
X503937Y374016D01*
D56*
X437008Y365905D02*
X442362Y371260D01*
D59*
X503937Y387795D02*
Y391339D01*
X502953Y397638D02*
Y401575D01*
D61*
X437008Y335906D02*
D03*
Y355906D02*
D03*
Y345905D02*
D03*
D62*
Y365905D02*
D03*
D63*
X420275Y349409D02*
D03*
X512795Y418307D02*
D03*
D64*
X437008Y389370D02*
D03*
X430709Y402756D02*
D03*
X437008Y415354D02*
D03*
X465748Y419685D02*
D03*
X464869Y383934D02*
D03*
X496850Y354331D02*
D03*
X428346Y377953D02*
D03*
Y381496D02*
D03*
X503937Y391339D02*
D03*
X428346Y391142D02*
D03*
Y388189D02*
D03*
X447244Y418110D02*
D03*
X503937Y387795D02*
D03*
X502953Y397638D02*
D03*
Y401575D02*
D03*
D65*
X493307Y343701D02*
D03*
X490608Y409392D02*
D03*
X449868Y376772D02*
D03*
X446063Y370472D02*
D03*
X446457Y367323D02*
D03*
X428976Y369449D02*
D03*
X469291Y427953D02*
D03*
X491732Y379921D02*
D03*
X477165Y415354D02*
D03*
X482677Y359842D02*
D03*
X483465Y372835D02*
D03*
X487402Y368898D02*
D03*
X490945Y388189D02*
D03*
X495669Y411417D02*
D03*
X474803Y388189D02*
D03*
X455905Y394094D02*
D03*
X454724Y427559D02*
D03*
X452756Y347244D02*
D03*
X438583Y380315D02*
D03*
X435039D02*
D03*
X450000Y436221D02*
D03*
X454724Y403150D02*
D03*
X454699Y379946D02*
D03*
X462598Y334252D02*
D03*
Y339764D02*
D03*
X471260D02*
D03*
Y334252D02*
D03*
X467717Y348425D02*
D03*
X450714Y361117D02*
D03*
X453150Y358661D02*
D03*
X464567Y374016D02*
D03*
X446850Y334646D02*
D03*
X503937Y374016D02*
D03*
Y369685D02*
D03*
M02*
