M48
;Layer_Color=9474304
;FILE_FORMAT=2:5
INCH,LZ
;TYPE=PLATED
T1F00S00C0.01181
T2F00S00C0.01968
T3F00S00C0.03150
;TYPE=NON_PLATED
T4F00S00C0.09843
%
T01
X044685Y0334646
X0462598Y0334252
Y0339764
X0467717Y0348425
X0452756Y0347244
X045315Y0358661
X0450714Y0361117
X0450394Y03765
X0454699Y0379946
X0455905Y0394094
X0454724Y040315
Y0427559
X045Y0436221
X0438583Y0380315
X0435039
X0429134Y0369291
X0464567Y0374016
X0483465Y0372835
X0487402Y0368898
X0482677Y0359842
X0493504Y0344685
X047126Y0339764
Y0334252
X0474803Y0388189
X0490945
X0491732Y0379921
X0503937Y0374016
Y0369685
X0495669Y0411417
X0491732Y0409449
X0477165Y0415354
X0469291Y0427953
T02
X0428346Y0377953
Y0381496
Y0388189
Y0391142
X0430709Y0402756
X0436811Y0398819
X0437008Y0415354
X0447244Y041811
X0465748Y0419685
X0464869Y0383934
X0503937Y0387795
Y0391339
X0502953Y0397638
Y0401575
X049685Y0354331
T03
X0437008Y0333347
Y0343347
Y0353346
Y0363347
T04
X0420275Y0349409
X0512795Y0418307
M30
